<svg xmlns="http://www.w3.org/2000/svg" width="770" height="220" font-family="Arial, sans-serif">
    <rect width="100%" height="100%" fill="white"/>
    <text x="20" y="30" font-size="18" font-weight="bold" fill="#333">Wiring - ESP32 WiFi Web Control</text>
    <g transform="translate(20, 50)">
    <rect x="0" y="0" width="730" height="40" fill="#f2f2f2" stroke="#ddd"/>\n<rect x="0" y="0" width="180" height="40" fill="none" stroke="#ddd"/>\n<text x="10" y="25" font-size="14" font-weight="bold" fill="#333">Component Pin</text>\n<rect x="180" y="0" width="150" height="40" fill="none" stroke="#ddd"/>\n<text x="190" y="25" font-size="14" font-weight="bold" fill="#333">Board Pin</text>\n<rect x="330" y="0" width="400" height="40" fill="none" stroke="#ddd"/>\n<text x="340" y="25" font-size="14" font-weight="bold" fill="#333">Notes</text>\n<rect x="0" y="40" width="730" height="40" fill="#ffffff" stroke="#ddd"/>\n<rect x="0" y="40" width="180" height="40" fill="none" stroke="#ddd"/>\n<text x="10" y="65" font-size="14" fill="#555">LED (+)</text>\n<rect x="180" y="40" width="150" height="40" fill="none" stroke="#ddd"/>\n<text x="190" y="65" font-size="14" fill="#555">GPIO 2</text>\n<rect x="330" y="40" width="400" height="40" fill="none" stroke="#ddd"/>\n<text x="340" y="65" font-size="14" fill="#555">Through 220Ω resistor (GPIO 2 = built-in LED on most ESP32)</text>\n<rect x="0" y="80" width="730" height="40" fill="#fafafa" stroke="#ddd"/>\n<rect x="0" y="80" width="180" height="40" fill="none" stroke="#ddd"/>\n<text x="10" y="105" font-size="14" fill="#555">LED (−)</text>\n<rect x="180" y="80" width="150" height="40" fill="none" stroke="#ddd"/>\n<text x="190" y="105" font-size="14" fill="#555">GND</text>\n<rect x="330" y="80" width="400" height="40" fill="none" stroke="#ddd"/>\n<text x="340" y="105" font-size="14" fill="#555">Short leg to GND</text>\n
    </g>
</svg>